HIERARCHY
ROOT hip
{
  OFFSET 0 0 0
  CHANNELS 6 Xposition Yposition Zposition Zrotation Yrotation Xrotation
  JOINT abdomen
  {
    OFFSET 0 20.6881 -0.73152
    CHANNELS 3 Zrotation Xrotation Yrotation
    JOINT chest
    {
      OFFSET 0 11.7043 -0.48768
      CHANNELS 3 Zrotation Xrotation Yrotation
      JOINT neck
      {
        OFFSET 0 22.1894 -2.19456
        CHANNELS 3 Zrotation Xrotation Yrotation
        JOINT head
        {
          OFFSET -0.24384 7.07133 1.2192
          CHANNELS 3 Zrotation Xrotation Yrotation
          JOINT leftEye
          {
            OFFSET 4.14528 8.04674 8.04672
            CHANNELS 3 Zrotation Xrotation Yrotation
            End Site
            {
              OFFSET 1 0 0
            }
          }
          JOINT rightEye
          {
            OFFSET -3.6576 8.04674 8.04672
            CHANNELS 3 Zrotation Xrotation Yrotation
            End Site
            {
              OFFSET 1 0 0
            }
          }
        }
      }
      JOINT rCollar
      {
        OFFSET -2.68224 19.2634 -4.8768
        CHANNELS 3 Zrotation Xrotation Yrotation
        JOINT rShldr
        {
          OFFSET -8.77824 -1.95073 1.46304
          CHANNELS 3 Zrotation Xrotation Yrotation
          JOINT rForeArm
          {
            OFFSET -28.1742 -1.7115 0.48768
            CHANNELS 3 Zrotation Xrotation Yrotation
            JOINT rHand
            {
              OFFSET -22.5879 0.773209 7.07136
              CHANNELS 3 Zrotation Xrotation Yrotation
              JOINT rThumb1
              {
                OFFSET -1.2192 -0.487915 3.41376
                CHANNELS 3 Zrotation Xrotation Yrotation
                JOINT rThumb2
                {
                  OFFSET -3.37035 -0.52449 3.41376
                  CHANNELS 3 Zrotation Xrotation Yrotation
                  End Site
                  {
                    OFFSET -1.78271 -1.18214 1.43049
                  }
                }
              }
              JOINT rIndex1
              {
                OFFSET -7.75947 0.938293 5.60832
                CHANNELS 3 Zrotation Xrotation Yrotation
                JOINT rIndex2
                {
                  OFFSET -2.54057 -0.884171 1.56538
                  CHANNELS 3 Zrotation Xrotation Yrotation
                  End Site
                  {
                    OFFSET -1.62519 -0.234802 1.16502
                  }
                }
              }
              JOINT rMid1
              {
                OFFSET -8.24714 1.18213 3.41376
                CHANNELS 3 Zrotation Xrotation Yrotation
                JOINT rMid2
                {
                  OFFSET -3.10165 -0.590103 1.0647
                  CHANNELS 3 Zrotation Xrotation Yrotation
                  End Site
                  {
                    OFFSET -2.48547 -0.328903 0.83742
                  }
                }
              }
              JOINT rRing1
              {
                OFFSET -8.82822 0.546677 1.51678
                CHANNELS 3 Zrotation Xrotation Yrotation
                JOINT rRing2
                {
                  OFFSET -2.60934 -0.819778 -0.0198488
                  CHANNELS 3 Zrotation Xrotation Yrotation
                  End Site
                  {
                    OFFSET -2.33842 -0.294052 0.168128
                  }
                }
              }
              JOINT rPinky1
              {
                OFFSET -8.27202 -0.0477905 -0.4584
                CHANNELS 3 Zrotation Xrotation Yrotation
                JOINT rPinky2
                {
                  OFFSET -1.82734 -0.647385 -0.700984
                  CHANNELS 3 Zrotation Xrotation Yrotation
                  End Site
                  {
                    OFFSET -1.69225 -0.51767 -0.607171
                  }
                }
              }
            }
          }
        }
      }
      JOINT lCollar
      {
        OFFSET 2.68224 19.2634 -4.8768
        CHANNELS 3 Zrotation Xrotation Yrotation
        JOINT lShldr
        {
          OFFSET 8.77824 -1.95073 1.46304
          CHANNELS 3 Zrotation Xrotation Yrotation
          JOINT lForeArm
          {
            OFFSET 28.1742 -1.7115 0.48768
            CHANNELS 3 Zrotation Xrotation Yrotation
            JOINT lHand
            {
              OFFSET 22.5879 0.773209 7.07136
              CHANNELS 3 Zrotation Xrotation Yrotation
              JOINT lThumb1
              {
                OFFSET 1.2192 -0.487915 3.41376
                CHANNELS 3 Zrotation Xrotation Yrotation
                JOINT lThumb2
                {
                  OFFSET 3.37035 -0.52449 3.41376
                  CHANNELS 3 Zrotation Xrotation Yrotation
                  End Site
                  {
                    OFFSET 1.78271 -1.18214 1.43049
                  }
                }
              }
              JOINT lIndex1
              {
                OFFSET 7.75947 0.938293 5.60832
                CHANNELS 3 Zrotation Xrotation Yrotation
                JOINT lIndex2
                {
                  OFFSET 2.54057 -0.884171 1.56538
                  CHANNELS 3 Zrotation Xrotation Yrotation
                  End Site
                  {
                    OFFSET 1.62519 -0.234802 1.16502
                  }
                }
              }
              JOINT lMid1
              {
                OFFSET 8.24714 1.18213 3.41376
                CHANNELS 3 Zrotation Xrotation Yrotation
                JOINT lMid2
                {
                  OFFSET 3.10165 -0.590103 1.0647
                  CHANNELS 3 Zrotation Xrotation Yrotation
                  End Site
                  {
                    OFFSET 2.48547 -0.328903 0.83742
                  }
                }
              }
              JOINT lRing1
              {
                OFFSET 8.82822 0.546677 1.51678
                CHANNELS 3 Zrotation Xrotation Yrotation
                JOINT lRing2
                {
                  OFFSET 2.60934 -0.819778 -0.0198488
                  CHANNELS 3 Zrotation Xrotation Yrotation
                  End Site
                  {
                    OFFSET 2.33842 -0.294052 0.168128
                  }
                }
              }
              JOINT lPinky1
              {
                OFFSET 8.27202 -0.0477905 -0.4584
                CHANNELS 3 Zrotation Xrotation Yrotation
                JOINT lPinky2
                {
                  OFFSET 1.82734 -0.647385 -0.700984
                  CHANNELS 3 Zrotation Xrotation Yrotation
                  End Site
                  {
                    OFFSET 1.69225 -0.51767 -0.607171
                  }
                }
              }
            }
          }
        }
      }
    }
  }
  JOINT rButtock
  {
    OFFSET -8.77824 4.35084 1.2192
    CHANNELS 3 Zrotation Xrotation Yrotation
    JOINT rThigh
    {
      OFFSET 0 -1.70687 -2.19456
      CHANNELS 3 Zrotation Xrotation Yrotation
      JOINT rShin
      {
        OFFSET 0 -36.8199 0.73152
        CHANNELS 3 Zrotation Xrotation Yrotation
        JOINT rFoot
        {
          OFFSET 0.73152 -45.1104 -5.12064
          CHANNELS 3 Zrotation Xrotation Yrotation
          End Site
          {
            OFFSET -1.1221 -3.69964 12.103
          }
        }
      }
    }
  }
  JOINT lButtock
  {
    OFFSET 8.77824 4.35084 1.2192
    CHANNELS 3 Zrotation Xrotation Yrotation
    JOINT lThigh
    {
      OFFSET 0 -1.70687 -2.19456
      CHANNELS 3 Zrotation Xrotation Yrotation
      JOINT lShin
      {
        OFFSET 0 -36.8199 0.73152
        CHANNELS 3 Zrotation Xrotation Yrotation
        JOINT lFoot
        {
          OFFSET -0.73152 -45.1104 -5.12064
          CHANNELS 3 Zrotation Xrotation Yrotation
          End Site
          {
            OFFSET 1.1221 -3.69964 12.103
          }
        }
      }
    }
  }
}
MOTION
Frames:	8
Frame Time:	0.00833333
5.039 90.9934 -37.8333 1.2866 6.7417 1.9835 1.15188 4.94562 -1.61859 3.99069 -4.60628 -0.268585 3.50715 -4.0755 1.13738 -5.1679 -16.7572 0.291517 -0.0 0.0 0.0 -0.0 0.0 0.0 2.23377e-14 8.22928e-14 6.37105e-14 74.1725 21.5978 -1.61472 -13.8345 -6.82174 25.2218 -0.132445 -10.3205 -1.46651 -3.93028e-10 1.5444e-09 1.90452e-11 -6.82894e-10 2.67737e-09 3.32901e-11 -3.93026e-10 1.54441e-09 1.90261e-11 7.73091 5.47488 0.417314 -3.93032e-10 1.54441e-09 1.90388e-11 2.90554 0.965183 0.102902 -3.93027e-10 1.54441e-09 1.90356e-11 10.2786 0.731801 0.0259123 -3.93031e-10 1.54441e-09 1.90388e-11 2.22167 -0.733487 -0.20892 2.22909e-14 8.23007e-14 6.3462e-14 -80.3046 33.7931 6.13068 16.7549 -9.40788 -31.283 0.187379 -12.241 1.74729 2.70736e-10 7.86891e-10 3.00616e-10 4.69731e-10 1.36282e-09 5.21254e-10 2.70732e-10 7.86895e-10 3.00613e-10 -7.73091 5.47488 -0.417314 2.70738e-10 7.8689e-10 3.00607e-10 -2.90554 0.965183 -0.102902 2.7073e-10 7.86893e-10 3.00616e-10 -10.2786 0.731801 -0.0259123 2.70735e-10 7.86894e-10 3.00613e-10 -2.22167 -0.733487 0.20892 -2.03217e-16 0.0 -3.88251e-19 -1.63783 -17.9571 -4.1477 -0.231407 32.8702 0.343568 0.181627 6.86001 -19.0607 2.03217e-16 0.0 3.88251e-19 5.73081 -20.3715 5.37601 0.377597 41.7739 -0.70634 1.45721 -0.968092 8.85163
4.90551 90.6648 -36.9322 0.7278 6.8056 1.7702 1.79851 5.04958 -1.67137 3.77468 -4.67418 -0.285294 3.42056 -3.89616 1.12114 -5.18773 -16.6368 0.303644 -0.0 0.0 0.0 -0.0 0.0 0.0 1.27912e-14 5.94309e-14 6.21909e-14 74.031 21.9239 -1.3337 -14.0654 -7.00864 25.6836 -0.144145 -10.7714 -1.53204 -3.27212e-10 1.30402e-09 1.62663e-10 -5.69563e-10 2.26248e-09 2.81596e-10 -3.27207e-10 1.30402e-09 1.62644e-10 7.73091 5.47488 0.417314 -3.27213e-10 1.30402e-09 1.62657e-10 2.90554 0.965183 0.102902 -3.27209e-10 1.30402e-09 1.62654e-10 10.2786 0.731801 0.0259123 -3.27214e-10 1.30402e-09 1.62657e-10 2.22167 -0.733487 -0.20892 1.271e-14 5.94356e-14 6.19342e-14 -80.0892 33.8661 6.44383 17.1496 -9.80166 -32.1357 0.206906 -12.8289 1.83417 6.03873e-11 4.18143e-10 2.6962e-10 1.05024e-10 7.24176e-10 4.65297e-10 6.03838e-11 4.18146e-10 2.69621e-10 -7.73091 5.47488 -0.417314 6.03896e-11 4.18142e-10 2.69612e-10 -2.90554 0.965183 -0.102902 6.0383e-11 4.18145e-10 2.6962e-10 -10.2786 0.731801 -0.0259123 6.03877e-11 4.18146e-10 2.69615e-10 -2.22167 -0.733487 0.20892 -2.03217e-16 0.0 -3.88251e-19 -1.05087 -16.9111 -4.1276 -0.219595 32.1263 0.339661 0.18449 6.80285 -19.0257 2.03217e-16 0.0 3.88251e-19 6.30846 -21.4308 5.36693 0.370248 41.4542 -0.698627 1.55776 -1.37308 9.15815
4.77585 90.2862 -36.044 0.16 6.8814 1.5646 2.54919 5.15182 -1.75308 3.53155 -4.75736 -0.309479 3.40002 -3.6917 1.12914 -5.33065 -16.5869 0.319969 -0.0 0.0 0.0 -0.0 0.0 0.0 6.63531e-15 1.33436e-14 5.61132e-14 73.8881 22.2817 -1.07369 -14.324 -7.21991 26.2065 -0.158407 -11.2841 -1.60685 -3.02679e-10 8.86389e-10 4.12113e-10 -5.27617e-10 1.5411e-09 7.12359e-10 -3.02672e-10 8.8639e-10 4.12098e-10 7.73091 5.47488 0.417314 -3.02676e-10 8.86389e-10 4.1211e-10 2.90554 0.965183 0.102902 -3.02672e-10 8.86392e-10 4.12106e-10 10.2786 0.731801 0.0259123 -3.02681e-10 8.86392e-10 4.12109e-10 2.22167 -0.733487 -0.20892 6.49734e-15 1.33421e-14 5.58492e-14 -79.8836 33.8993 6.76256 17.5442 -10.2064 -33.0014 0.2229 -13.3113 1.90563 -3.67617e-10 -2.89259e-10 1.63789e-10 -6.36361e-10 -5.00533e-10 2.78047e-10 -3.6762e-10 -2.89254e-10 1.63797e-10 -7.73091 5.47488 -0.417314 -3.67614e-10 -2.89257e-10 1.63785e-10 -2.90554 0.965183 -0.102902 -3.6762e-10 -2.89256e-10 1.6379e-10 -10.2786 0.731801 -0.0259123 -3.67614e-10 -2.89255e-10 1.63784e-10 -2.22167 -0.733487 0.20892 -2.03217e-16 0.0 -3.88251e-19 -0.423835 -15.8354 -4.20557 -0.206974 31.3072 0.335256 0.205124 6.82927 -18.6049 2.03217e-16 0.0 3.88251e-19 6.93297 -22.5283 5.30329 0.363033 41.1321 -0.690991 1.66031 -1.76528 9.46245
4.65839 89.869 -35.1705 -0.3721 6.9557 1.3663 3.29959 5.27797 -1.83847 3.29115 -4.85055 -0.33397 3.39949 -3.49589 1.14653 -5.51487 -16.5618 0.339731 -0.0 0.0 0.0 -0.0 0.0 0.0 1.92805e-15 -3.14641e-14 5.06536e-14 73.7318 22.6461 -0.804515 -14.5963 -7.44596 26.7617 -0.174264 -11.8187 -1.68519 -2.95613e-10 4.92824e-10 6.45733e-10 -5.158e-10 8.61233e-10 1.11562e-09 -2.95604e-10 4.92823e-10 6.45721e-10 7.73091 5.47488 0.417314 -2.95606e-10 4.92822e-10 6.45732e-10 2.90554 0.965183 0.102902 -2.95602e-10 4.92827e-10 6.45727e-10 10.2786 0.731801 0.0259123 -2.95614e-10 4.92825e-10 6.45731e-10 2.22167 -0.733487 -0.20892 1.73721e-15 -3.14716e-14 5.039e-14 -79.6743 33.8901 7.05068 17.9297 -10.6124 -33.8602 0.236277 -13.71 1.96484 -7.84627e-10 -9.697e-10 4.36932e-11 -1.35853e-09 -1.67846e-09 6.64429e-11 -7.8463e-10 -9.69696e-10 4.37077e-11 -7.73091 5.47488 -0.417314 -7.84624e-10 -9.69698e-10 4.36934e-11 -2.90554 0.965183 -0.102902 -7.84628e-10 -9.69698e-10 4.36953e-11 -10.2786 0.731801 -0.0259123 -7.84621e-10 -9.69698e-10 4.36875e-11 -2.22167 -0.733487 0.20892 -2.03217e-16 0.0 -3.88251e-19 0.212526 -14.7224 -4.31411 -0.194521 30.4718 0.332566 0.176408 6.71274 -18.1085 2.03217e-16 0.0 3.88251e-19 7.53028 -23.6093 5.18572 0.3544 40.737 -0.680208 1.75632 -2.10016 9.76449
4.5444 89.428 -34.3157 -0.8703 7.0144 1.1738 3.94529 5.45369 -1.90229 3.08336 -4.9485 -0.351593 3.37315 -3.34252 1.15847 -5.6586 -16.5159 0.362153 -0.0 0.0 0.0 -0.0 0.0 0.0 -3.27275e-15 -5.0487e-14 5.09883e-14 73.5499 22.992 -0.495853 -14.8694 -7.6777 27.3201 -0.190332 -12.3352 -1.76117 -2.82199e-10 3.24634e-10 7.41858e-10 -4.92854e-10 5.70843e-10 1.28144e-09 -2.82189e-10 3.24632e-10 7.41848e-10 7.73091 5.47488 0.417314 -2.8219e-10 3.24632e-10 7.41858e-10 2.90554 0.965183 0.102902 -2.82186e-10 3.24637e-10 7.41853e-10 10.2786 0.731801 0.0259123 -2.82199e-10 3.24635e-10 7.41858e-10 2.22167 -0.733487 -0.20892 -3.48609e-15 -5.04975e-14 5.07398e-14 -79.4475 33.836 7.27201 18.2982 -11.0108 -34.6924 0.248271 -14.0465 2.01504 -9.61991e-10 -1.25757e-09 -3.01008e-11 -1.66558e-09 -2.17676e-09 -6.25766e-11 -9.61994e-10 -1.25757e-09 -3.00817e-11 -7.73091 5.47488 -0.417314 -9.61988e-10 -1.25757e-09 -3.00976e-11 -2.90554 0.965183 -0.102902 -9.61992e-10 -1.25757e-09 -3.00984e-11 -10.2786 0.731801 -0.0259123 -9.61983e-10 -1.25757e-09 -3.01071e-11 -2.22167 -0.733487 0.20892 -2.03217e-16 0.0 -3.88251e-19 0.822305 -13.5647 -4.38726 -0.183053 29.6791 0.333699 0.035865 6.22634 -17.8485 2.03217e-16 0.0 3.88251e-19 8.02683 -24.6189 5.01457 0.343002 40.1985 -0.663216 1.83629 -2.33333 10.064
4.43883 88.9739 -33.4817 -1.3142 7.0432 0.9847 4.45114 5.71858 -1.94156 2.91207 -5.06775 -0.361106 3.29407 -3.24348 1.15707 -5.7331 -16.4319 0.384985 -0.0 0.0 0.0 -0.0 0.0 0.0 -1.1139e-14 -2.59907e-14 6.69928e-14 73.3463 23.3317 -0.154963 -15.1594 -7.93079 27.9131 -0.206702 -12.848 -1.83683 -2.84426e-10 6.10735e-10 6.31087e-10 -4.97021e-10 1.06634e-09 1.08972e-09 -2.84418e-10 6.10733e-10 6.3108e-10 7.73091 5.47488 0.417314 -2.84419e-10 6.10734e-10 6.31088e-10 2.90554 0.965183 0.102902 -2.84414e-10 6.10738e-10 6.31084e-10 10.2786 0.731801 0.0259123 -2.84426e-10 6.10736e-10 6.3109e-10 2.22167 -0.733487 -0.20892 -1.1329e-14 -2.59995e-14 6.67882e-14 -79.1905 33.7537 7.42739 18.6636 -11.4195 -35.5217 0.258895 -14.3293 2.05741 -7.81858e-10 -9.33584e-10 -2.9213e-11 -1.35329e-09 -1.61577e-09 -5.85587e-11 -7.81862e-10 -9.33581e-10 -2.91928e-11 -7.73091 5.47488 -0.417314 -7.81856e-10 -9.33584e-10 -2.92088e-11 -2.90554 0.965183 -0.102902 -7.8186e-10 -9.33585e-10 -2.92115e-11 -10.2786 0.731801 -0.0259123 -7.8185e-10 -9.33584e-10 -2.92201e-11 -2.22167 -0.733487 0.20892 -2.03217e-16 0.0 -3.88251e-19 1.38566 -12.3474 -4.41016 -0.172846 28.9865 0.340831 -0.263004 5.23697 -17.893 2.03217e-16 0.0 3.88251e-19 8.3828 -25.5263 4.78192 0.328767 39.4788 -0.639049 1.89477 -2.44402 10.3614
4.34531 88.517 -32.6621 -1.6815 7.0365 0.7967 4.87526 6.04805 -1.96855 2.76272 -5.20511 -0.366112 3.19162 -3.17978 1.15155 -5.78431 -16.3358 0.409313 -0.0 0.0 0.0 -0.0 0.0 0.0 -2.00837e-14 2.52222e-14 9.30747e-14 73.1242 23.672 0.207461 -15.465 -8.20269 28.5435 -0.224054 -13.37 -1.91416 -3.0555e-10 1.18535e-09 3.90627e-10 -5.3389e-10 2.06092e-09 6.73808e-10 -3.05545e-10 1.18535e-09 3.90621e-10 7.73091 5.47488 0.417314 -3.05546e-10 1.18535e-09 3.90627e-10 2.90554 0.965183 0.102902 -3.05541e-10 1.18535e-09 3.90625e-10 10.2786 0.731801 0.0259123 -3.0555e-10 1.18535e-09 3.90634e-10 2.22167 -0.733487 -0.20892 -2.02212e-14 2.52179e-14 9.29349e-14 -78.9132 33.6393 7.53238 19.0245 -11.8355 -36.3496 0.266975 -14.546 2.0899 -3.85135e-10 -2.3333e-10 9.9776e-12 -6.6567e-10 -4.03328e-10 1.41508e-11 -3.85141e-10 -2.33329e-10 9.99688e-12 -7.73091 5.47488 -0.417314 -3.85134e-10 -2.33333e-10 9.98177e-12 -2.90554 0.965183 -0.102902 -3.8514e-10 -2.33333e-10 9.9774e-12 -10.2786 0.731801 -0.0259123 -3.85128e-10 -2.33332e-10 9.96964e-12 -2.22167 -0.733487 0.20892 -2.03217e-16 0.0 -3.88251e-19 1.92356 -11.0787 -4.41797 -0.163162 28.3485 0.352143 -0.684779 3.89269 -18.0876 2.03217e-16 0.0 3.88251e-19 8.6397 -26.366 4.48765 0.31304 38.6218 -0.609933 1.93517 -2.45932 10.6563
4.25554 88.0781 -31.8536 -2.0008 6.9874 0.61 5.25286 6.37145 -1.98077 2.63764 -5.32576 -0.366691 3.10458 -3.13892 1.15275 -5.84262 -16.247 0.439353 -0.0 0.0 0.0 -0.0 0.0 0.0 -2.64101e-14 7.58509e-14 1.11208e-13 72.8711 23.9791 0.61656 -15.7493 -8.45898 29.1393 -0.241219 -13.8593 -1.98702 -2.9365e-10 1.65775e-09 1.18723e-10 -5.13228e-10 2.87778e-09 2.03879e-10 -2.93648e-10 1.65775e-09 1.1872e-10 7.73091 5.47488 0.417314 -2.9365e-10 1.65776e-09 1.18724e-10 2.90554 0.965183 0.102902 -2.93644e-10 1.65776e-09 1.18723e-10 10.2786 0.731801 0.0259123 -2.93651e-10 1.65775e-09 1.18734e-10 2.22167 -0.733487 -0.20892 -2.64886e-14 7.58519e-14 1.11129e-13 -78.6358 33.4591 7.57311 19.3533 -12.2229 -37.1213 0.272165 -14.6867 2.11101 6.86926e-11 5.26491e-10 5.09015e-11 1.20755e-10 9.12235e-10 9.02921e-11 6.86862e-11 5.2649e-10 5.0919e-11 -7.73091 5.47488 -0.417314 6.86925e-11 5.26486e-10 5.09052e-11 -2.90554 0.965183 -0.102902 6.86865e-11 5.26485e-10 5.08995e-11 -10.2786 0.731801 -0.0259123 6.86991e-11 5.26488e-10 5.08927e-11 -2.22167 -0.733487 0.20892 -2.03217e-16 0.0 -3.88251e-19 2.45793 -9.78551 -4.42049 -0.153315 27.6702 0.363768 -1.17395 2.3905 -18.4102 2.03217e-16 0.0 3.88251e-19 8.84692 -27.1809 4.14396 0.296703 37.6797 -0.577644 1.96102 -2.4067 10.9474
